<?xml version="1.0" encoding="UTF-8" standalone="no"?>
<svg width="173px" height="346px" viewBox="0 0 173 346" version="1.1" xmlns="http://www.w3.org/2000/svg" xmlns:xlink="http://www.w3.org/1999/xlink" xmlns:sketch="http://www.bohemiancoding.com/sketch/ns">
    <!-- Generator: Sketch 3.2.2 (9983) - http://www.bohemiancoding.com/sketch -->
    <title>bunny</title>
    <desc>Created with Sketch.</desc>
    <defs>
        <linearGradient x1="110.039105%" y1="100%" x2="50%" y2="100%" id="linearGradient-1">
            <stop stop-color="#80CBC4" offset="0%"></stop>
            <stop stop-color="#B2DFDB" offset="100%"></stop>
        </linearGradient>
        <linearGradient x1="50%" y1="0%" x2="50%" y2="100%" id="linearGradient-2">
            <stop stop-color="#B2DFDB" offset="0%"></stop>
            <stop stop-color="#80CBC4" offset="100%"></stop>
        </linearGradient>
        <linearGradient x1="50%" y1="0%" x2="50%" y2="100%" id="linearGradient-3">
            <stop stop-color="#5D4037" offset="0%"></stop>
            <stop stop-color="#3E2723" offset="100%"></stop>
        </linearGradient>
    </defs>
    <g id="Page-1" stroke="none" stroke-width="1" fill="none" fill-rule="evenodd" sketch:type="MSPage">
        <g id="bunny" sketch:type="MSLayerGroup" transform="translate(2.000000, 2.000000)">
            <path d="M162.27202,310.045093 C163.323959,309.221389 164,307.939644 164,306.5 C164,304.424798 162.595298,302.677681 160.684866,302.157621 C160.88823,301.644638 161,301.085372 161,300.5 C161,298.538197 159.744623,296.869603 157.993375,296.253723 C157.865508,293.882974 155.90265,292 153.5,292 C152.454274,292 151.491858,292.356697 150.727786,292.955059 C150.097522,291.230786 148.442493,290 146.5,290 C144.74852,290 143.23075,291.00063 142.48717,292.461409 C142.240903,292.340004 141.981923,292.240461 141.712766,292.165314 L141.712766,292.165314 C141.90293,289.462139 142,286.621114 142,283.636094 C142,261.811388 136.252844,241.93914 126.839769,227.046595 L126.839769,227.046595 C152.047364,212.942579 169,186.630753 169,156.5 C169,135.935192 161.102919,117.149363 148.07409,102.809666 L148.07409,102.809666 C152.293486,92.706874 155.782326,79.7480354 157.795629,65.4226351 C162.599578,31.2407631 157.183428,2.22237251 145.698319,0.608245704 C134.21321,-1.0058811 121.008319,25.3954928 116.204371,59.5773649 C115.192479,66.7773446 114.634035,73.7482304 114.490242,80.2821693 C105.170082,76.8687692 95.0613115,75 84.5,75 C76.5075372,75 68.7742437,76.0702401 61.4457719,78.0702389 C61.2351627,72.1836138 60.6941697,65.9708108 59.7956294,59.5773649 C54.9916806,25.3954928 41.7867902,-1.0058811 30.3016812,0.608245704 C18.8165722,2.22237251 13.4004217,31.2407631 18.2043706,65.4226351 C19.8946042,77.4492727 22.6248173,88.5127375 25.9541944,97.7316797 L25.9541944,97.7316797 C9.95628239,112.561151 0,133.409148 0,156.5 C0,186.630753 16.9526363,212.942579 42.1602313,227.046595 C32.7471558,241.93914 27,261.811388 27,283.636094 C27,329.827033 55.2436269,341.538005 87,341.538005 C107.883627,341.538005 125.085796,336.47343 134.41709,319.868846 L134.41709,319.868846 C134.614829,319.917697 134.81772,319.953474 135.024793,319.975207 C135.26219,322.237106 137.175222,324 139.5,324 C140.129809,324 140.729399,323.870616 141.27364,323.636977 C142.091237,324.477723 143.234626,325 144.5,325 C145.939644,325 147.221389,324.323959 148.045093,323.27202 C148.751077,323.732428 149.594291,324 150.5,324 C151.765374,324 152.908763,323.477723 153.72636,322.636977 C154.270601,322.870616 154.870191,323 155.5,323 C157.985281,323 160,320.985281 160,318.5 C160,317.914628 159.88823,317.355362 159.684866,316.842379 C161.595298,316.322319 163,314.575202 163,312.5 C163,311.594291 162.732428,310.751077 162.27202,310.045093 Z" id="Oval-1" stroke="#979797" stroke-width="4" fill="#FFFFFF" sketch:type="MSShapeGroup"></path>
            <path d="M25.9541944,97.7316797 C9.95628239,112.561151 0,133.409148 0,156.5 C0,186.630753 16.9526363,212.942579 42.1602313,227.046595 C32.7471558,241.93914 27,261.811388 27,283.636094 C27,329.827033 55.2436269,341.538005 87,341.538005 C118.756373,341.538005 142,329.827033 142,283.636094 C142,261.811388 136.252844,241.93914 126.839769,227.046595 L126.839769,227.046595 C152.047364,212.942579 169,186.630753 169,156.5 C169,135.935192 161.102919,117.149363 148.07409,102.809666 L148.07409,102.809666 C152.293486,92.706874 155.782326,79.7480354 157.795629,65.4226351 C162.599578,31.2407631 157.183428,2.22237251 145.698319,0.608245704 C134.21321,-1.0058811 121.008319,25.3954928 116.204371,59.5773649 C115.192479,66.7773446 114.634035,73.7482304 114.490242,80.2821693 C105.170082,76.8687692 95.0613115,75 84.5,75 C76.5075372,75 68.7742437,76.0702401 61.4457719,78.0702389 C61.2351627,72.1836138 60.6941697,65.9708108 59.7956294,59.5773649 C54.9916806,25.3954928 41.7867902,-1.0058811 30.3016812,0.608245704 C18.8165722,2.22237251 13.4004217,31.2407631 18.2043706,65.4226351 C19.8946042,77.4492727 22.6248173,88.5127375 25.9541944,97.7316797 Z" id="Oval-4" stroke="#979797" stroke-width="4" fill="#FFFFFF" sketch:type="MSShapeGroup"></path>
            <ellipse id="Oval-5" fill="#EAA3C3" sketch:type="MSShapeGroup" transform="translate(36.500000, 48.500000) rotate(-8.000000) translate(-36.500000, -48.500000) " cx="36.5" cy="48.5" rx="10.5" ry="26.5"></ellipse>
            <ellipse id="Oval-5" fill="#EAA3C3" sketch:type="MSShapeGroup" transform="translate(139.500000, 48.500000) rotate(8.000000) translate(-139.500000, -48.500000) " cx="139.5" cy="48.5" rx="10.5" ry="26.5"></ellipse>
            <circle id="Oval-7" fill="#979797" sketch:type="MSShapeGroup" cx="54.5" cy="134.5" r="7.5"></circle>
            <circle id="Oval-7" fill="#979797" sketch:type="MSShapeGroup" cx="117.5" cy="134.5" r="7.5"></circle>
            <path d="M61,338 C63.9862723,338.65892 67.4427505,339.412303 69,338 C70.8323014,336.338246 71.5,331.253946 71.5,327.079114 C71.5,319.356147 70.3512746,307 64,307 C57.6487254,307 52.5,321.507481 52.5,329.230448 C52.5,336.953415 54.5,336.565778 61,338 Z" id="Oval-9" stroke="#979797" stroke-width="2" sketch:type="MSShapeGroup"></path>
            <path d="M107,338 C109.986272,338.65892 113.442751,339.412303 115,338 C116.832301,336.338246 117.5,331.253946 117.5,327.079114 C117.5,319.356147 116.351275,307 110,307 C103.648725,307 98.5,321.507481 98.5,329.230448 C98.5,336.953415 100.5,336.565778 107,338 Z" id="Oval-9" stroke="#979797" stroke-width="2" sketch:type="MSShapeGroup" transform="translate(108.000000, 322.900456) scale(-1, 1) translate(-108.000000, -322.900456) "></path>
            <path d="M106.864969,332.871567 C108.751035,333.30669 110.934074,333.804193 111.9176,332.871567 C113.074843,331.774214 113.496547,328.416753 113.496547,325.659868 C113.496547,320.559942 112.771037,312.400456 108.759705,312.400456 C104.748374,312.400456 101.496547,321.980593 101.496547,327.08052 C101.496547,332.180446 102.759705,331.924466 106.864969,332.871567 Z" id="Oval-9" fill="#ECD3DE" sketch:type="MSShapeGroup" transform="translate(107.496547, 322.900456) scale(-1, 1) translate(-107.496547, -322.900456) "></path>
            <path d="M61.3684211,331.971111 C63.2544877,332.406234 65.4375266,332.903737 66.4210526,331.971111 C67.5782956,330.873758 68,327.516297 68,324.759412 C68,319.659486 67.2744892,311.5 63.2631579,311.5 C59.2518266,311.5 56,321.080137 56,326.180064 C56,331.27999 57.2631579,331.02401 61.3684211,331.971111 Z" id="Oval-9" fill="#ECD3DE" sketch:type="MSShapeGroup"></path>
            <path d="M53,262 C53,265.461538 53,277 60.3576642,277 C67.7153285,277 66.979562,262 66.979562,262" id="Line" stroke="#979797" stroke-width="2" stroke-linecap="square" sketch:type="MSShapeGroup" transform="translate(60.000000, 269.500000) rotate(15.000000) translate(-60.000000, -269.500000) "></path>
            <path d="M109.472222,262 C109.472222,265.461538 109.472222,277 116.829886,277 C124.187551,277 123.451784,262 123.451784,262" id="Line" stroke="#979797" stroke-width="2" stroke-linecap="square" sketch:type="MSShapeGroup" transform="translate(116.472222, 269.500000) rotate(-55.000000) translate(-116.472222, -269.500000) "></path>
            <path d="M88,159.426213 C92.330127,159.426213 98.7046627,170.885194 96.660254,174.426213 C94.6158454,177.967233 81.5533479,178.260284 79.339746,174.426213 C77.126144,170.592142 83.669873,159.426213 88,159.426213 Z" id="Triangle-1" fill="#EAA3C3" sketch:type="MSShapeGroup" transform="translate(88.129771, 167.713107) scale(-1, 1) rotate(-180.000000) translate(-88.129771, -167.713107) "></path>
            <g id="coffee-mug" transform="translate(119.000000, 246.000000)" sketch:type="MSShapeGroup">
                <path d="M0,35.1192513 C7.64747858,35.1192513 11.199095,36.7174248 15.0452489,32.8361462 C16.8705864,30.994139 16.8572392,28.7869607 16.8552036,26.5439797 C16.8540728,25.297925 16.8888,22.1860898 15.9502262,20.5073791 C15.0183737,18.8406898 12.8897774,18.6545173 12.1040724,18.4525846 C7.2678311,17.2096302 0,17.7676531 0,17.7676531" id="Line" stroke="url(#linearGradient-1)" stroke-width="5" stroke-linecap="square" transform="translate(8.427692, 26.543980) scale(-1, 1) translate(-8.427692, -26.543980) "></path>
                <rect id="Rectangle-1" fill="url(#linearGradient-2)" x="10" y="3.42465753" width="41.4027149" height="44.9771689"></rect>
                <ellipse id="Oval-32" stroke="#B2DFDB" fill="url(#linearGradient-3)" cx="30.7013575" cy="3.65296804" rx="20.7013575" ry="3.65296804"></ellipse>
                <path d="M30.7013575,50 C42.1344015,50 51.4027149,48.9061961 51.4027149,48.4018265 C51.4027149,47.8974568 42.1344015,47.4885845 30.7013575,47.4885845 C19.2683134,47.4885845 10,47.8974568 10,48.4018265 C10,48.9061961 19.2683134,50 30.7013575,50 Z" id="Oval-33" fill="#80CBC4"></path>
                <path d="M20.3100255,35.4452055 C19.491064,35.4452055 18.7678552,35.3248086 18.1403775,35.0840111 C17.5128999,34.8432137 16.9959014,34.5147234 16.5893665,34.0985303 C16.1828317,33.6763915 15.8794081,33.1769673 15.6790865,32.6002426 C15.478765,32.0235179 15.3786058,31.3962648 15.3786058,30.7184646 C15.3786058,30.1001206 15.500859,29.5115134 15.7453691,28.9526256 C15.9898791,28.3937377 16.3212884,27.9032318 16.7396069,27.481093 C17.169709,27.0470631 17.7043826,26.7007362 18.3436439,26.4421019 C18.9829053,26.1834676 19.6884388,26.0541524 20.4602658,26.0541524 C21.5443587,26.0541524 22.4016041,26.2607594 23.0320277,26.6739797 C23.6624513,27.0872 23.9776584,27.6445931 23.9776584,28.3461758 C23.9776584,28.7742601 23.8657157,29.1191007 23.6418269,29.3807078 C23.4179382,29.6423149 23.0320305,29.7731164 22.4840922,29.7731164 C22.0422065,29.7731164 21.672501,29.666097 21.3749646,29.4520548 C21.0774283,29.2380126 20.9286623,28.9585729 20.9286623,28.6137272 C20.9286623,28.322392 20.9757961,28.034034 21.070065,27.7486444 C21.164334,27.4632549 21.2203053,27.2462431 21.2379808,27.0976027 C21.1731709,26.9905817 21.0906868,26.9088307 20.990526,26.8523473 C20.8903653,26.795864 20.7342347,26.7676227 20.5221295,26.7676227 C20.2569981,26.7676227 20.0154376,26.8300507 19.7974406,26.9549087 C19.5794437,27.0797666 19.3761793,27.2997511 19.1876414,27.6148687 C19.0049953,27.9121495 18.8591752,28.3104998 18.7501768,28.8099315 C18.6411783,29.3093632 18.5866799,29.9098614 18.5866799,30.6114441 C18.5866799,31.6697637 18.8326592,32.5229467 19.3246253,33.1710188 C19.8165914,33.8190909 20.4042905,34.1431221 21.0877404,34.1431221 C21.7417312,34.1431221 22.2616756,33.9959704 22.6475891,33.7016624 C23.0335026,33.4073544 23.3766953,32.9896812 23.6771776,32.4486301 L24.3400028,32.9123858 C24.1573567,33.2750684 23.9393631,33.6065315 23.6860153,33.9067851 C23.4326675,34.2070387 23.1292438,34.473101 22.7757353,34.70498 C22.4045513,34.9487503 22.0274812,35.1330616 21.6445136,35.2579195 C21.261546,35.3827775 20.816721,35.4452055 20.3100255,35.4452055 L20.3100255,35.4452055 Z M34.9540441,26.9638271 C34.6889127,27.0054464 34.4311499,27.1065203 34.180748,27.2670519 C33.9303461,27.4275836 33.722663,27.6772957 33.5576923,28.0161958 C33.1452657,28.8842557 32.7402099,29.7597345 32.3425127,30.6426584 C31.9448156,31.5255823 31.5544891,32.3802518 31.1715215,33.2066924 C31.0536853,33.4564082 30.9196487,33.7774666 30.7694075,34.1698773 C30.6191664,34.5622879 30.4939673,34.9190195 30.3938066,35.2400828 L28.7676753,35.2400828 C28.0901173,33.6526034 27.5112557,32.3356692 27.0310732,31.2892409 C26.5508908,30.2428125 26.0427299,29.119108 25.5065752,27.9180936 C25.3828472,27.6386497 25.1898934,27.4186652 24.9277079,27.2581336 C24.6655224,27.0976019 24.398922,26.9995007 24.1278988,26.9638271 L24.1278988,26.3127854 L29.5719033,26.3127854 L29.5719033,26.9638271 C29.3715818,26.9697727 29.1359129,27.0143641 28.8648897,27.0976027 C28.5938665,27.1808414 28.4583569,27.2878608 28.4583569,27.4186644 C28.4583569,27.4543381 28.4701403,27.5078478 28.4937076,27.5791952 C28.5172748,27.6505426 28.5467334,27.7308072 28.5820843,27.8199914 C28.7706222,28.2718582 29.0548977,28.9228934 29.4349194,29.7731164 C29.8149411,30.6233395 30.217051,31.5181412 30.6412613,32.4575485 C30.9358518,31.8094764 31.2171814,31.1747914 31.4852588,30.5534746 C31.7533361,29.9321578 32.0847454,29.1399163 32.4794966,28.1767266 C32.5325229,28.0340318 32.5634544,27.9180941 32.5722921,27.8289098 C32.5811299,27.7397256 32.5855486,27.6802703 32.5855486,27.6505422 C32.5855486,27.5435212 32.5339961,27.4498791 32.4308894,27.3696133 C32.3277828,27.2893475 32.2055296,27.2194875 32.0641261,27.1600314 C31.9168309,27.1005752 31.7754296,27.0559838 31.639918,27.0262557 C31.5044064,26.9965276 31.3924637,26.9757183 31.3040865,26.9638271 L31.3040865,26.3127854 L34.9540441,26.3127854 L34.9540441,26.9638271 Z M46.5667421,34.9725314 L42.2097709,35.2311644 L42.0772059,35.1063071 L42.0772059,34.2858162 L42.0153422,34.2679795 C41.7266435,34.5830971 41.336317,34.8580777 40.844351,35.0929295 C40.3523849,35.3277813 39.8560074,35.4452055 39.3552036,35.4452055 C38.1650582,35.4452055 37.1840866,34.999291 36.4122596,34.1074486 C35.6404326,33.2156063 35.2545249,32.0621741 35.2545249,30.6471176 C35.2545249,29.3925927 35.6860934,28.3164524 36.5492435,27.4186644 C37.4123936,26.5208764 38.4567011,26.0719892 39.6821974,26.0719892 C40.1653258,26.0719892 40.6189883,26.1269853 41.0431985,26.2369792 C41.4674088,26.3469731 41.8061827,26.4762883 42.0595305,26.6249287 L42.0595305,23.7086187 C42.0595305,23.4886309 42.0153426,23.2820239 41.9269655,23.0887914 C41.8385884,22.8955589 41.7207539,22.7454343 41.5734587,22.6384132 C41.3908126,22.5076097 41.1625084,22.4139677 40.8885393,22.3574843 C40.6145702,22.301001 40.3391322,22.2608687 40.0622172,22.2370862 L40.0622172,21.5860445 L44.8345588,21.3541667 L44.9671239,21.4968607 L44.9671239,33.1888556 C44.9671239,33.414789 45.0039471,33.6050458 45.0775947,33.7596318 C45.1512424,33.9142179 45.2705497,34.0361012 45.4355204,34.1252854 C45.5592484,34.1906872 45.7404188,34.2382514 45.979037,34.2679795 C46.2176553,34.2977075 46.413555,34.3155441 46.5667421,34.3214897 L46.5667421,34.9725314 Z M42.0595305,33.3850599 L42.0595305,28.3461758 C42.0182879,28.2094266 41.9608436,28.0578157 41.887196,27.8913385 C41.8135484,27.7248612 41.7119162,27.5673048 41.5822964,27.4186644 C41.4644602,27.2938065 41.3068567,27.1838142 41.1094811,27.0886844 C40.9121054,26.9935545 40.689693,26.9459903 40.442237,26.9459903 C39.8530561,26.9459903 39.369935,27.2819125 38.9928592,27.9537671 C38.6157834,28.6256217 38.4272483,29.5739332 38.4272483,30.79873 C38.4272483,31.2803249 38.4611257,31.712862 38.5288815,32.0963542 C38.5966373,32.4798464 38.7159447,32.8291461 38.8868071,33.1442637 C39.0576696,33.4593813 39.2771362,33.7061207 39.5452135,33.8844892 C39.8132908,34.0628576 40.1358626,34.1520405 40.5129383,34.1520405 C40.8723387,34.1520405 41.1698706,34.0821806 41.405543,33.9424586 C41.6412154,33.8027366 41.859209,33.6169389 42.0595305,33.3850599 L42.0595305,33.3850599 Z" id="cvd" fill="#FFFFFF"></path>
            </g>
        </g>
    </g>
</svg>