<?xml version="1.0" encoding="UTF-8" standalone="no"?>
<svg width="344px" height="213px" viewBox="0 0 344 213" version="1.1" xmlns="http://www.w3.org/2000/svg" xmlns:xlink="http://www.w3.org/1999/xlink" xmlns:sketch="http://www.bohemiancoding.com/sketch/ns">
    <!-- Generator: Sketch 3.2.2 (9983) - http://www.bohemiancoding.com/sketch -->
    <title>Group</title>
    <desc>Created with Sketch.</desc>
    <defs></defs>
    <g id="Page-1" stroke="none" stroke-width="1" fill="none" fill-rule="evenodd" sketch:type="MSPage">
        <g id="Group" sketch:type="MSLayerGroup" transform="translate(-22.000000, 2.000000)">
            <g transform="translate(320.000000, 45.500000) rotate(59.000000) translate(-320.000000, -45.500000) translate(288.000000, 11.000000)" id="Line" stroke="#7ED321" stroke-width="10" stroke-linecap="square" sketch:type="MSShapeGroup">
                <path d="M10.5,66.5 L0,10"></path>
                <path d="M27.2959831,67.4451566 L34.9999998,7"></path>
                <path d="M18.3590217,67.5863623 L18.3590217,2.99999998"></path>
                <path d="M33.9933409,65.866493 L51.9999994,1.00000002"></path>
                <path d="M43.6165378,67.1458669 L63.0000007,15"></path>
            </g>
            <path d="M182.162194,100.874632 C194.466232,100.874632 208.770269,96.8746317 221.162194,96.8746317 C234.103602,96.8746317 258.162194,100.874632 258.162194,100.874632" id="Line" stroke="#F6A623" stroke-width="7" stroke-linecap="square" sketch:type="MSShapeGroup" transform="translate(220.162194, 98.874632) rotate(55.000000) translate(-220.162194, -98.874632) "></path>
            <path d="M147.882389,126.596346 C149.417372,126.596346 160.280737,124.764546 161.882389,124.596346 C170.416345,123.700136 170.434711,122.596346 178.671862,122.596346 C188.888763,122.596346 207.882389,126.596346 207.882389,126.596346" id="Line" stroke="#F6A623" stroke-width="6" stroke-linecap="square" sketch:type="MSShapeGroup" transform="translate(177.882389, 124.596346) rotate(55.000000) translate(-177.882389, -124.596346) "></path>
            <path d="M99.2959831,154.31806 C100.575136,154.31806 109.62794,152.486261 110.96265,152.31806 C118.07428,151.421851 118.089585,150.31806 124.953878,150.31806 C133.467962,150.31806 149.295983,154.31806 149.295983,154.31806" id="Line" stroke="#F6A623" stroke-width="5" stroke-linecap="square" sketch:type="MSShapeGroup" transform="translate(124.295983, 152.318060) rotate(55.000000) translate(-124.295983, -152.318060) "></path>
            <path d="M105.257779,16.5565974 C115.179371,-9.22579625 135.937759,-14.429327 157.000002,-14.0000004 C176.665833,-13.5991378 196.65519,-9.34642477 206.735233,16.5565974 C227.611072,70.2019365 181.365869,280 155.996506,280 C130.627142,280 86.0723901,66.4120314 105.257779,16.5565974 Z" id="Triangle-1" stroke="#F6A623" stroke-width="7" sketch:type="MSShapeGroup" transform="translate(156.295983, 132.988114) rotate(62.000000) translate(-156.295983, -132.988114) "></path>
        </g>
    </g>
</svg>